<mxfile host="Electron" agent="Mozilla/5.0 (Windows NT 10.0; Win64; x64) AppleWebKit/537.36 (KHTML, like Gecko) draw.io/24.7.8 Chrome/128.0.6613.36 Electron/32.0.1 Safari/537.36" version="24.7.8">
  <diagram name="第 1 页" id="V5xKtjVhflVKp08DV1Mf">
    <mxGraphModel dx="2389" dy="917" grid="1" gridSize="10" guides="1" tooltips="1" connect="1" arrows="1" fold="1" page="1" pageScale="1" pageWidth="827" pageHeight="1169" math="0" shadow="0">
      <root>
        <mxCell id="0" />
        <mxCell id="1" parent="0" />
        <mxCell id="AiTMGPRlB7GayVj-HCfy-18" value="" style="edgeStyle=orthogonalEdgeStyle;rounded=0;orthogonalLoop=1;jettySize=auto;html=1;" parent="1" source="AiTMGPRlB7GayVj-HCfy-2" target="AiTMGPRlB7GayVj-HCfy-17" edge="1">
          <mxGeometry relative="1" as="geometry" />
        </mxCell>
        <mxCell id="AiTMGPRlB7GayVj-HCfy-50" value="" style="group" parent="1" vertex="1" connectable="0">
          <mxGeometry x="20" y="420" width="540" height="220" as="geometry" />
        </mxCell>
        <mxCell id="AiTMGPRlB7GayVj-HCfy-2" value="实例化SpringApplication" style="whiteSpace=wrap;html=1;rounded=0;verticalAlign=top;fontSize=18;fillColor=#fff2cc;strokeColor=#d6b656;" parent="AiTMGPRlB7GayVj-HCfy-50" vertex="1">
          <mxGeometry width="540" height="220" as="geometry" />
        </mxCell>
        <mxCell id="AiTMGPRlB7GayVj-HCfy-6" value="" style="edgeStyle=orthogonalEdgeStyle;rounded=0;orthogonalLoop=1;jettySize=auto;html=1;" parent="AiTMGPRlB7GayVj-HCfy-50" source="AiTMGPRlB7GayVj-HCfy-4" target="AiTMGPRlB7GayVj-HCfy-5" edge="1">
          <mxGeometry relative="1" as="geometry" />
        </mxCell>
        <mxCell id="AiTMGPRlB7GayVj-HCfy-4" value="指定primarySources（通常是启动类）" style="rounded=0;whiteSpace=wrap;html=1;" parent="AiTMGPRlB7GayVj-HCfy-50" vertex="1">
          <mxGeometry x="10" y="40" width="120" height="60" as="geometry" />
        </mxCell>
        <mxCell id="AiTMGPRlB7GayVj-HCfy-8" value="" style="edgeStyle=orthogonalEdgeStyle;rounded=0;orthogonalLoop=1;jettySize=auto;html=1;" parent="AiTMGPRlB7GayVj-HCfy-50" source="AiTMGPRlB7GayVj-HCfy-5" target="AiTMGPRlB7GayVj-HCfy-7" edge="1">
          <mxGeometry relative="1" as="geometry" />
        </mxCell>
        <mxCell id="AiTMGPRlB7GayVj-HCfy-5" value="确定Web应用类型（REACTIVE/SERVLET/NONE）" style="whiteSpace=wrap;html=1;rounded=0;" parent="AiTMGPRlB7GayVj-HCfy-50" vertex="1">
          <mxGeometry x="164" y="40" width="180" height="60" as="geometry" />
        </mxCell>
        <mxCell id="AiTMGPRlB7GayVj-HCfy-10" value="" style="edgeStyle=orthogonalEdgeStyle;rounded=0;orthogonalLoop=1;jettySize=auto;html=1;" parent="AiTMGPRlB7GayVj-HCfy-50" source="AiTMGPRlB7GayVj-HCfy-7" target="AiTMGPRlB7GayVj-HCfy-9" edge="1">
          <mxGeometry relative="1" as="geometry" />
        </mxCell>
        <mxCell id="AiTMGPRlB7GayVj-HCfy-7" value="获取并实例化&lt;div&gt;spring.factories文件中BootstrapRegistryInitializer&lt;div&gt;配置的类&lt;/div&gt;&lt;/div&gt;" style="whiteSpace=wrap;html=1;rounded=0;" parent="AiTMGPRlB7GayVj-HCfy-50" vertex="1">
          <mxGeometry x="367.5" y="40" width="160" height="60" as="geometry" />
        </mxCell>
        <mxCell id="AiTMGPRlB7GayVj-HCfy-12" value="" style="edgeStyle=orthogonalEdgeStyle;rounded=0;orthogonalLoop=1;jettySize=auto;html=1;" parent="AiTMGPRlB7GayVj-HCfy-50" source="AiTMGPRlB7GayVj-HCfy-9" target="AiTMGPRlB7GayVj-HCfy-11" edge="1">
          <mxGeometry relative="1" as="geometry" />
        </mxCell>
        <mxCell id="AiTMGPRlB7GayVj-HCfy-9" value="获取并实例化&lt;div&gt;spring.factories文件中ApplicationContextInitializer&lt;div&gt;配置的类&lt;/div&gt;&lt;/div&gt;" style="whiteSpace=wrap;html=1;rounded=0;" parent="AiTMGPRlB7GayVj-HCfy-50" vertex="1">
          <mxGeometry x="365" y="135" width="165" height="60" as="geometry" />
        </mxCell>
        <mxCell id="AiTMGPRlB7GayVj-HCfy-16" value="" style="edgeStyle=orthogonalEdgeStyle;rounded=0;orthogonalLoop=1;jettySize=auto;html=1;" parent="AiTMGPRlB7GayVj-HCfy-50" source="AiTMGPRlB7GayVj-HCfy-11" target="AiTMGPRlB7GayVj-HCfy-15" edge="1">
          <mxGeometry relative="1" as="geometry" />
        </mxCell>
        <mxCell id="AiTMGPRlB7GayVj-HCfy-11" value="获取并实例化&lt;div&gt;spring.factories文件中ApplicationListener&lt;div&gt;配置的类&lt;/div&gt;&lt;/div&gt;" style="whiteSpace=wrap;html=1;rounded=0;" parent="AiTMGPRlB7GayVj-HCfy-50" vertex="1">
          <mxGeometry x="174" y="135" width="160" height="60" as="geometry" />
        </mxCell>
        <mxCell id="AiTMGPRlB7GayVj-HCfy-15" value="获取main方法所属类" style="whiteSpace=wrap;html=1;rounded=0;" parent="AiTMGPRlB7GayVj-HCfy-50" vertex="1">
          <mxGeometry x="10" y="135" width="120" height="60" as="geometry" />
        </mxCell>
        <mxCell id="Kl0THtAzcAzTMujwmwK5-1" value="" style="group" vertex="1" connectable="0" parent="1">
          <mxGeometry x="-80" y="690" width="740" height="410" as="geometry" />
        </mxCell>
        <mxCell id="AiTMGPRlB7GayVj-HCfy-17" value="run" style="whiteSpace=wrap;html=1;fontSize=18;verticalAlign=top;fillColor=#fff2cc;strokeColor=#d6b656;rounded=0;" parent="Kl0THtAzcAzTMujwmwK5-1" vertex="1">
          <mxGeometry width="740" height="410" as="geometry" />
        </mxCell>
        <mxCell id="AiTMGPRlB7GayVj-HCfy-21" value="" style="edgeStyle=orthogonalEdgeStyle;rounded=0;orthogonalLoop=1;jettySize=auto;html=1;" parent="Kl0THtAzcAzTMujwmwK5-1" source="AiTMGPRlB7GayVj-HCfy-19" target="AiTMGPRlB7GayVj-HCfy-20" edge="1">
          <mxGeometry relative="1" as="geometry" />
        </mxCell>
        <mxCell id="AiTMGPRlB7GayVj-HCfy-19" value="创建引导上下文" style="rounded=0;whiteSpace=wrap;html=1;" parent="Kl0THtAzcAzTMujwmwK5-1" vertex="1">
          <mxGeometry x="17.5" y="40" width="120" height="60" as="geometry" />
        </mxCell>
        <mxCell id="AiTMGPRlB7GayVj-HCfy-23" value="" style="edgeStyle=orthogonalEdgeStyle;rounded=0;orthogonalLoop=1;jettySize=auto;html=1;" parent="Kl0THtAzcAzTMujwmwK5-1" source="AiTMGPRlB7GayVj-HCfy-20" target="AiTMGPRlB7GayVj-HCfy-22" edge="1">
          <mxGeometry relative="1" as="geometry" />
        </mxCell>
        <mxCell id="AiTMGPRlB7GayVj-HCfy-20" value="配置java.awt.headless环境变量为false&lt;div&gt;（无头模式）&lt;/div&gt;" style="whiteSpace=wrap;html=1;rounded=0;" parent="Kl0THtAzcAzTMujwmwK5-1" vertex="1">
          <mxGeometry x="193" y="40" width="130" height="60" as="geometry" />
        </mxCell>
        <mxCell id="AiTMGPRlB7GayVj-HCfy-25" value="" style="edgeStyle=orthogonalEdgeStyle;rounded=0;orthogonalLoop=1;jettySize=auto;html=1;" parent="Kl0THtAzcAzTMujwmwK5-1" source="AiTMGPRlB7GayVj-HCfy-22" target="AiTMGPRlB7GayVj-HCfy-24" edge="1">
          <mxGeometry relative="1" as="geometry" />
        </mxCell>
        <mxCell id="AiTMGPRlB7GayVj-HCfy-22" value="获取并实例化&lt;div&gt;spring.factories文件中SpringApplicationRunListener&lt;div&gt;配置的类&lt;/div&gt;&lt;/div&gt;" style="whiteSpace=wrap;html=1;rounded=0;" parent="Kl0THtAzcAzTMujwmwK5-1" vertex="1">
          <mxGeometry x="378" y="40" width="165" height="60" as="geometry" />
        </mxCell>
        <mxCell id="AiTMGPRlB7GayVj-HCfy-27" value="" style="edgeStyle=orthogonalEdgeStyle;rounded=0;orthogonalLoop=1;jettySize=auto;html=1;" parent="Kl0THtAzcAzTMujwmwK5-1" source="AiTMGPRlB7GayVj-HCfy-24" target="AiTMGPRlB7GayVj-HCfy-26" edge="1">
          <mxGeometry relative="1" as="geometry" />
        </mxCell>
        <mxCell id="AiTMGPRlB7GayVj-HCfy-24" value="发布应用开始启动事件" style="whiteSpace=wrap;html=1;rounded=0;" parent="Kl0THtAzcAzTMujwmwK5-1" vertex="1">
          <mxGeometry x="597.5" y="40" width="132.5" height="60" as="geometry" />
        </mxCell>
        <mxCell id="AiTMGPRlB7GayVj-HCfy-29" value="" style="edgeStyle=orthogonalEdgeStyle;rounded=0;orthogonalLoop=1;jettySize=auto;html=1;" parent="Kl0THtAzcAzTMujwmwK5-1" source="AiTMGPRlB7GayVj-HCfy-26" target="AiTMGPRlB7GayVj-HCfy-28" edge="1">
          <mxGeometry relative="1" as="geometry" />
        </mxCell>
        <mxCell id="AiTMGPRlB7GayVj-HCfy-26" value="封装args&lt;div&gt;（命令行参数）&lt;/div&gt;" style="whiteSpace=wrap;html=1;rounded=0;" parent="Kl0THtAzcAzTMujwmwK5-1" vertex="1">
          <mxGeometry x="600.63" y="140" width="126.25" height="60" as="geometry" />
        </mxCell>
        <mxCell id="AiTMGPRlB7GayVj-HCfy-31" value="" style="edgeStyle=orthogonalEdgeStyle;rounded=0;orthogonalLoop=1;jettySize=auto;html=1;" parent="Kl0THtAzcAzTMujwmwK5-1" source="AiTMGPRlB7GayVj-HCfy-28" target="AiTMGPRlB7GayVj-HCfy-30" edge="1">
          <mxGeometry relative="1" as="geometry" />
        </mxCell>
        <mxCell id="AiTMGPRlB7GayVj-HCfy-28" value="准备环境" style="whiteSpace=wrap;html=1;rounded=0;" parent="Kl0THtAzcAzTMujwmwK5-1" vertex="1">
          <mxGeometry x="455" y="140" width="120" height="60" as="geometry" />
        </mxCell>
        <mxCell id="AiTMGPRlB7GayVj-HCfy-33" value="" style="edgeStyle=orthogonalEdgeStyle;rounded=0;orthogonalLoop=1;jettySize=auto;html=1;" parent="Kl0THtAzcAzTMujwmwK5-1" source="AiTMGPRlB7GayVj-HCfy-30" target="AiTMGPRlB7GayVj-HCfy-32" edge="1">
          <mxGeometry relative="1" as="geometry" />
        </mxCell>
        <mxCell id="AiTMGPRlB7GayVj-HCfy-30" value="配置忽略Bean信息环境变量" style="whiteSpace=wrap;html=1;rounded=0;" parent="Kl0THtAzcAzTMujwmwK5-1" vertex="1">
          <mxGeometry x="309" y="140" width="120" height="60" as="geometry" />
        </mxCell>
        <mxCell id="AiTMGPRlB7GayVj-HCfy-35" value="" style="edgeStyle=orthogonalEdgeStyle;rounded=0;orthogonalLoop=1;jettySize=auto;html=1;" parent="Kl0THtAzcAzTMujwmwK5-1" source="AiTMGPRlB7GayVj-HCfy-32" target="AiTMGPRlB7GayVj-HCfy-34" edge="1">
          <mxGeometry relative="1" as="geometry" />
        </mxCell>
        <mxCell id="AiTMGPRlB7GayVj-HCfy-32" value="打印banner" style="whiteSpace=wrap;html=1;rounded=0;" parent="Kl0THtAzcAzTMujwmwK5-1" vertex="1">
          <mxGeometry x="163" y="140" width="120" height="60" as="geometry" />
        </mxCell>
        <mxCell id="AiTMGPRlB7GayVj-HCfy-37" value="" style="edgeStyle=orthogonalEdgeStyle;rounded=0;orthogonalLoop=1;jettySize=auto;html=1;" parent="Kl0THtAzcAzTMujwmwK5-1" source="AiTMGPRlB7GayVj-HCfy-34" target="AiTMGPRlB7GayVj-HCfy-36" edge="1">
          <mxGeometry relative="1" as="geometry" />
        </mxCell>
        <mxCell id="AiTMGPRlB7GayVj-HCfy-34" value="创建&lt;div&gt;ApplicationContext&lt;br&gt;&lt;/div&gt;&lt;div&gt;（应用上下文）&lt;/div&gt;" style="whiteSpace=wrap;html=1;rounded=0;" parent="Kl0THtAzcAzTMujwmwK5-1" vertex="1">
          <mxGeometry x="17.5" y="140" width="120" height="60" as="geometry" />
        </mxCell>
        <mxCell id="AiTMGPRlB7GayVj-HCfy-39" value="" style="edgeStyle=orthogonalEdgeStyle;rounded=0;orthogonalLoop=1;jettySize=auto;html=1;" parent="Kl0THtAzcAzTMujwmwK5-1" source="AiTMGPRlB7GayVj-HCfy-36" target="AiTMGPRlB7GayVj-HCfy-38" edge="1">
          <mxGeometry relative="1" as="geometry" />
        </mxCell>
        <mxCell id="AiTMGPRlB7GayVj-HCfy-36" value="准备上下文" style="whiteSpace=wrap;html=1;rounded=0;" parent="Kl0THtAzcAzTMujwmwK5-1" vertex="1">
          <mxGeometry x="17.5" y="240" width="120" height="60" as="geometry" />
        </mxCell>
        <mxCell id="AiTMGPRlB7GayVj-HCfy-41" value="" style="edgeStyle=orthogonalEdgeStyle;rounded=0;orthogonalLoop=1;jettySize=auto;html=1;" parent="Kl0THtAzcAzTMujwmwK5-1" source="AiTMGPRlB7GayVj-HCfy-38" target="AiTMGPRlB7GayVj-HCfy-40" edge="1">
          <mxGeometry relative="1" as="geometry" />
        </mxCell>
        <mxCell id="AiTMGPRlB7GayVj-HCfy-38" value="刷新上下文" style="whiteSpace=wrap;html=1;rounded=0;" parent="Kl0THtAzcAzTMujwmwK5-1" vertex="1">
          <mxGeometry x="166" y="240" width="120" height="60" as="geometry" />
        </mxCell>
        <mxCell id="AiTMGPRlB7GayVj-HCfy-43" value="" style="edgeStyle=orthogonalEdgeStyle;rounded=0;orthogonalLoop=1;jettySize=auto;html=1;" parent="Kl0THtAzcAzTMujwmwK5-1" source="AiTMGPRlB7GayVj-HCfy-40" target="AiTMGPRlB7GayVj-HCfy-42" edge="1">
          <mxGeometry relative="1" as="geometry" />
        </mxCell>
        <mxCell id="AiTMGPRlB7GayVj-HCfy-40" value="刷新的后置处理" style="whiteSpace=wrap;html=1;rounded=0;" parent="Kl0THtAzcAzTMujwmwK5-1" vertex="1">
          <mxGeometry x="314" y="240" width="120" height="60" as="geometry" />
        </mxCell>
        <mxCell id="AiTMGPRlB7GayVj-HCfy-45" value="" style="edgeStyle=orthogonalEdgeStyle;rounded=0;orthogonalLoop=1;jettySize=auto;html=1;" parent="Kl0THtAzcAzTMujwmwK5-1" source="AiTMGPRlB7GayVj-HCfy-42" target="AiTMGPRlB7GayVj-HCfy-44" edge="1">
          <mxGeometry relative="1" as="geometry" />
        </mxCell>
        <mxCell id="AiTMGPRlB7GayVj-HCfy-42" value="发布应用已启动事件" style="whiteSpace=wrap;html=1;rounded=0;" parent="Kl0THtAzcAzTMujwmwK5-1" vertex="1">
          <mxGeometry x="462" y="240" width="120" height="60" as="geometry" />
        </mxCell>
        <mxCell id="AiTMGPRlB7GayVj-HCfy-47" value="" style="edgeStyle=orthogonalEdgeStyle;rounded=0;orthogonalLoop=1;jettySize=auto;html=1;" parent="Kl0THtAzcAzTMujwmwK5-1" source="AiTMGPRlB7GayVj-HCfy-44" target="AiTMGPRlB7GayVj-HCfy-46" edge="1">
          <mxGeometry relative="1" as="geometry" />
        </mxCell>
        <mxCell id="AiTMGPRlB7GayVj-HCfy-44" value="调用&lt;div&gt;ApplicationRunner&lt;br&gt;&lt;/div&gt;&lt;div&gt;CommandLineRunner&lt;br&gt;&lt;/div&gt;&lt;div&gt;的run方法&lt;/div&gt;" style="whiteSpace=wrap;html=1;rounded=0;" parent="Kl0THtAzcAzTMujwmwK5-1" vertex="1">
          <mxGeometry x="610" y="240" width="120" height="60" as="geometry" />
        </mxCell>
        <mxCell id="AiTMGPRlB7GayVj-HCfy-49" value="" style="edgeStyle=orthogonalEdgeStyle;rounded=0;orthogonalLoop=1;jettySize=auto;html=1;" parent="Kl0THtAzcAzTMujwmwK5-1" source="AiTMGPRlB7GayVj-HCfy-46" target="AiTMGPRlB7GayVj-HCfy-48" edge="1">
          <mxGeometry relative="1" as="geometry" />
        </mxCell>
        <mxCell id="AiTMGPRlB7GayVj-HCfy-46" value="发布应用就绪事件" style="whiteSpace=wrap;html=1;rounded=0;" parent="Kl0THtAzcAzTMujwmwK5-1" vertex="1">
          <mxGeometry x="610" y="340" width="120" height="60" as="geometry" />
        </mxCell>
        <mxCell id="AiTMGPRlB7GayVj-HCfy-48" value="返回应用上下文" style="whiteSpace=wrap;html=1;rounded=0;" parent="Kl0THtAzcAzTMujwmwK5-1" vertex="1">
          <mxGeometry x="444" y="340" width="120" height="60" as="geometry" />
        </mxCell>
      </root>
    </mxGraphModel>
  </diagram>
</mxfile>
